<?xml version="1.0" encoding="UTF-8"?>
<svg id="Layer_1" xmlns="http://www.w3.org/2000/svg" xmlns:xlink="http://www.w3.org/1999/xlink" version="1.1" viewBox="0 0 512 512">
  <!-- Generator: Adobe Illustrator 30.3.0, SVG Export Plug-In . SVG Version: 2.1.3 Build 182)  -->
  <defs>
    <style>
      .st0 {
        fill: none;
      }

      .st1 {
        fill: #dd2225;
      }

      .st2 {
        fill: #f9cf08;
      }

      .st3 {
        font-family: Arial-BoldMT, Arial;
        font-size: 52px;
        font-weight: 700;
        isolation: isolate;
        letter-spacing: .15em;
      }

      .st4 {
        fill: #fff;
      }

      .st5 {
        font-family: Arial-Black, 'Arial Black';
        font-size: 148px;
        font-weight: 800;
      }

      .st6 {
        fill: #2c409e;
      }

      .st7 {
        clip-path: url(#clippath);
      }
    </style>
    <clipPath id="clippath">
      <rect class="st0" y="-46.3" width="512" height="512"/>
    </clipPath>
  </defs>
  <text class="st5" transform="translate(0 491.3)"><tspan x="0" y="0">BM</tspan></text>
  <text class="st3" transform="translate(249.07 460.97)"><tspan x="0" y="0">VOCAB+</tspan></text>
  <sodipodi:namedview id="namedview4749" bordercolor="#666666" borderopacity="1" gridtolerance="10" guidetolerance="10" objecttolerance="10" pagecolor="#ffffff" showgrid="false"/>
  <g id="g4755">
    <g id="g4757">
      <g class="st7">
        <g id="g4759">
          <path id="path4765" class="st4" d="M448.79,94.53h-15.17c-13.65,7.88-29.44,17-46.3,26.73h17.22c12.49-7.55,29.24-17.66,44.24-26.73"/>
          <path id="path4767" class="st4" d="M500.33,173.21c-.94-1.59-2.98-2.12-4.58-1.2,0,0-1.81,1.04-4.69,2.71h9.73c-.03-.52-.18-1.03-.46-1.51"/>
          <path id="path4769" class="st4" d="M463.79,63.27c1.05-.63,1.64-1.75,1.64-2.89,0-.58-.15-1.17-.47-1.7-.94-1.59-2.98-2.13-4.59-1.21,0,0-6.69,3.86-17.9,10.33h13.76c3.95-2.36,7.56-4.53,7.56-4.53"/>
          <path id="path4771" class="st4" d="M482.1,60.86c1.04-.63,1.61-1.74,1.61-2.87,0-.59-.15-1.18-.48-1.72-.94-1.58-2.98-2.12-4.58-1.19,0,0-12.44,7.18-22.05,12.73h14.16c7.23-4.43,11.33-6.94,11.33-6.94"/>
          <path id="path4773" class="st4" d="M235.33,281.63h32.2c7.78-4.49,15.57-8.99,23.12-13.35-7.12,4.38-14.42,8.86-21.73,13.35h164.15l4.78-2.76c1.61-.93,2.16-2.99,1.23-4.6-.93-1.61-2.99-2.16-4.6-1.23,0,0-11.08,6.4-14.53,8.39,16.08-10.71,36.91-24.59,39.82-26.52h-13.51c-8.62,4.98-20.71,11.96-28.51,16.46,8.19-5.2,17.32-10.99,25.94-16.46h-16.8c-9.67,5.59-19.81,11.44-29.34,16.94,8.89-5.61,18-11.36,26.85-16.94h-145.53c-14.67,9-29.61,18.17-43.55,26.73"/>
          <path id="path4775" class="st4" d="M485.67,102.81c1.05-.63,1.63-1.74,1.63-2.89,0-.58-.15-1.17-.47-1.71-.94-1.59-2.98-2.13-4.58-1.2,0,0-18.27,10.55-41.99,24.24h14.88c15.77-9.52,30.54-18.44,30.54-18.44"/>
          <path id="path4777" class="st4" d="M141.89,315.9c-1.03.64-1.6,1.74-1.6,2.87,0,.59.15,1.18.48,1.72.94,1.58,2.98,2.11,4.58,1.19,0,0,9.83-5.67,23.08-13.33h-14.28c-7.76,4.78-12.25,7.54-12.25,7.54"/>
          <path id="path4779" class="st4" d="M108.89,281.63h14.14c13.13-7.58,30.36-17.53,46.3-26.73h-16.81c-18.7,11.46-34.02,20.84-43.62,26.73"/>
          <path id="path4781" class="st4" d="M480.81,94.53h-14.52c-12.07,6.97-24.89,14.37-32.37,18.69,5.67-3.41,20.22-12.18,31.03-18.69h-14.03c-15,8.66-33.88,19.56-46.3,26.73h32.32c17.05-10.39,32.54-19.83,43.86-26.73"/>
          <path id="path4783" class="st4" d="M150.22,320.98c-1.04.63-1.62,1.74-1.62,2.88,0,.58.15,1.17.47,1.71.94,1.59,2.98,2.12,4.58,1.2,0,0,12.56-7.25,31.91-18.42h-14.53c-11.98,7.27-20.81,12.63-20.81,12.63"/>
          <path id="path4785" class="st4" d="M160.86,281.63h15.09c6.03-3.48,11.48-6.63,15.27-8.82-3.85,2.33-8.96,5.42-14.6,8.82h15.62c14.13-8.16,29.91-17.27,46.29-26.73h-33.81c-16.19,9.87-31.49,19.19-43.86,26.73"/>
          <path id="path4787" class="st4" d="M197.58,281.63h17.14c2.6-1.5,5.08-2.93,7.38-4.26-2.17,1.31-4.53,2.75-7.02,4.26h16.78c14.83-8.56,30.62-17.68,46.29-26.73h-37.13c-15.33,9.43-30.14,18.55-43.44,26.73"/>
          <path id="path4789" class="st4" d="M130.24,309.64c-1.05.63-1.63,1.74-1.63,2.89,0,.58.15,1.17.47,1.71.94,1.59,2.98,2.13,4.58,1.2,0,0,4.49-2.59,12.28-7.09h-13.57c-1.36.82-2.13,1.29-2.13,1.29"/>
          <path id="path4791" class="st4" d="M481.81,66.71s-.66.38-1.9,1.09h6.4c-.97-1.5-2.94-1.99-4.5-1.09"/>
          <path id="path4793" class="st4" d="M126.1,281.63h14.24c8.67-5,17.15-9.9,21.61-12.48-3.98,2.4-12.34,7.43-20.71,12.48h14.47c13.25-7.65,29.31-16.92,46.29-26.73h-31.66c-15.37,9.29-32.18,19.45-44.24,26.73"/>
          <path id="path4795" class="st4" d="M473.93,227.74s-.26.15-.75.43h4.68c-1.06-.96-2.64-1.18-3.93-.43"/>
          <path id="path4797" class="st4" d="M486.95,215.44c1.01-.64,1.57-1.73,1.57-2.85,0-.59-.16-1.19-.49-1.74-.95-1.57-2.98-2.09-4.57-1.18,0,0-17.68,10.21-32.04,18.5h15.34c12.25-7.73,20.18-12.73,20.18-12.73"/>
          <path id="path4799" class="st4" d="M328.72,334.1c-.4.26-.71.6-.96.98h12.72l46.3-26.73h-19.4c-17.08,11.38-38.66,25.75-38.66,25.75"/>
          <path id="path4801" class="st4" d="M499.27,147.99h-13.75c-5.22,3.01-10.22,5.9-11.9,6.87,1.5-.9,6.39-3.85,11.38-6.87h-14.06c-12.6,7.27-29.06,16.78-46.29,26.73h31.12c19.85-12.19,36.08-22.17,43.5-26.73"/>
          <path id="path4803" class="st4" d="M247.65,362.35c.95,1.57,2.98,2.09,4.57,1.18,0,0,1.05-.61,2.98-1.72h-7.8c.07.19.15.37.26.54"/>
          <path id="path4805" class="st4" d="M487.23,205.67c1.03-.63,1.6-1.74,1.6-2.87,0-.46-.1-.92-.29-1.36h-7.45c-6.78,3.92-25.53,14.74-46.3,26.73h15.86c16.08-9.89,36.58-22.5,36.58-22.5"/>
          <path id="path4807" class="st4" d="M506.88,163.97c1.04-.63,1.62-1.74,1.62-2.88,0-.58-.15-1.18-.47-1.71-.94-1.59-2.98-2.12-4.58-1.2,0,0-19.62,11.33-28.65,16.54h14.41c9.9-6.02,17.68-10.75,17.68-10.75"/>
          <path id="path4809" class="st4" d="M498.43,160.33c1.05-.63,1.63-1.74,1.63-2.88,0-.58-.15-1.17-.47-1.71-.94-1.59-2.98-2.13-4.58-1.2,0,0-14.55,8.4-34.95,20.18h14.59c7.62-4.61,23.78-14.38,23.78-14.38"/>
          <path id="path4811" class="st4" d="M491.17,120.07c0-.58-.15-1.18-.47-1.71-.94-1.59-2.98-2.12-4.58-1.2,0,0-2.54,1.47-7.1,4.1h11.93c.14-.38.22-.78.22-1.19"/>
          <path id="path4813" class="st4" d="M465.96,147.99h-16.1c-11.32,6.53-22.63,13.07-32.01,18.48,8.32-5.05,19.45-11.8,30.45-18.48h-15.57c-14.06,8.12-29.91,17.27-46.3,26.73h35.98c15.51-9.52,30.54-18.74,43.55-26.73"/>
          <path id="path4815" class="st4" d="M486.86,111.53c1.03-.64,1.6-1.74,1.6-2.87,0-.59-.15-1.18-.48-1.72-.94-1.58-2.98-2.11-4.58-1.19,0,0-12.71,7.34-26.88,15.52h14.51c9.93-6.11,15.82-9.73,15.82-9.73"/>
          <path id="path4817" class="st4" d="M247.79,335.08h15.3c5.46-3.15,10.57-6.1,14.48-8.36-3.67,2.25-8.45,5.2-13.59,8.36h15.75c14.09-8.14,30.12-17.39,46.29-26.73h-35.27c-15.74,9.79-31.02,19.3-42.95,26.73"/>
          <path id="path4819" class="st4" d="M169.31,322.14c-1.04.64-1.61,1.74-1.61,2.87,0,.59.15,1.18.48,1.72.94,1.58,2.98,2.12,4.58,1.19,0,0,22.09-12.75,25.88-14.94-3.39,2.04-24.21,14.61-24.21,14.61-1.05.63-1.63,1.75-1.63,2.89,0,.58.15,1.17.47,1.71.94,1.59,2.98,2.13,4.58,1.2,0,0,18.38-10.61,43.39-25.05h-29.46c-13.77,8.45-22.47,13.79-22.47,13.79"/>
          <path id="path4821" class="st4" d="M284.68,335.08h16.8c11.65-6.73,24.21-13.98,36.34-20.98-10.49,6.66-22.55,14.31-33.06,20.98h16.1c13.85-7.99,30.03-17.34,46.29-26.73h-40.1c-14.79,9.33-29.64,18.7-42.37,26.73"/>
          <path id="path4823" class="st4" d="M509.44,119.41c0-.59-.15-1.18-.48-1.72-.94-1.58-2.98-2.12-4.58-1.19,0,0-3.1,1.79-8.24,4.76h12.74c.36-.55.56-1.19.56-1.85"/>
          <path id="path4825" class="st4" d="M232.59,362.29s.29-.17.84-.48h-4.82c1.05,1,2.67,1.25,3.99.48"/>
          <path id="path4827" class="st4" d="M181.93,335.08h13.83c5.76-3.32,11.35-6.56,13.44-7.76-1.87,1.13-7.32,4.43-12.84,7.76h14.14c13.29-7.67,28.93-16.7,38.94-22.48-8.64,5.25-24.82,15.09-36.97,22.48h14.3c6.89-3.98,13.45-7.76,17.3-9.99-3.56,2.16-9.83,5.98-16.43,9.99h14.79c13.49-7.79,29.61-17.1,46.29-26.73h-63.3c-19.37,11.9-35.44,21.78-43.5,26.73"/>
          <path id="path4829" class="st4" d="M352.64,67.8c17.15-10.46,32.52-19.84,43.82-26.73h-28.05c-5.63,3.25-11.73,6.78-18.24,10.53v16.2h2.46Z"/>
          <path id="path4831" class="st4" d="M350.17,228.17h82.18c16.27-10.12,31.68-19.72,42.95-26.73h-14.88c-.94.54-1.74,1-2.35,1.36.66-.4,1.41-.86,2.23-1.36h-46.56c-8.26,4.77-16.52,9.54-24.44,14.11,7.52-4.62,15.25-9.37,22.96-14.11h-62.11v26.73Z"/>
          <path id="path4833" class="st4" d="M350.17,174.71h34c15.23-9.37,30.03-18.48,43.44-26.73h-33.66c-5.58,3.22-11.05,6.38-16.28,9.4,5.05-3.08,10.21-6.22,15.43-9.4h-42.92v26.73Z"/>
          <path id="path4835" class="st4" d="M383.52,121.26c15.66-9.6,30.47-18.67,43.63-26.73h-30.96c-14.27,8.24-29.96,17.3-46.01,26.56v.16h33.35Z"/>
          <path id="path4837" class="st4" d="M436.15,41.07h-14.06c-12.04,6.95-28.36,16.37-46.29,26.73h16.62c18.76-11.47,34.27-20.95,43.73-26.73"/>
          <path id="path4839" class="st4" d="M447.8,46.71c1.04-.63,1.61-1.74,1.61-2.88,0-.59-.15-1.18-.47-1.72-.26-.43-.6-.78-.99-1.05h-3.85c-2.33,1.34-20.62,11.9-46.29,26.73h15.53c20.77-12.71,34.46-21.09,34.46-21.09"/>
          <path id="path4841" class="st4" d="M416.65,41.07h-13.97c-11.87,6.85-28.11,16.23-46.29,26.73h16.27c18.23-11.08,34.32-20.85,43.99-26.73"/>
          <path id="path4843" class="st4" d="M50.31,257.67c0,.58.15,1.18.47,1.71.94,1.59,2.98,2.12,4.58,1.2,0,0,3.55-2.05,9.84-5.68h-13.44c-.94.65-1.46,1.69-1.46,2.77"/>
          <path id="path4845" class="st4" d="M419.48,67.8h15.79c23.28-14.25,38.36-23.49,38.36-23.49,1.04-.63,1.61-1.74,1.61-2.87,0-.12-.01-.24-.02-.37h-9.44c-7.58,4.37-24.39,14.08-46.29,26.73"/>
          <path id="path4847" class="st4" d="M67.93,258.26c-1.04.63-1.61,1.74-1.61,2.88,0,.59.15,1.18.47,1.72.94,1.58,2.98,2.12,4.58,1.2,0,0,5.87-3.39,15.85-9.15h-13.79c-3.54,2.17-5.49,3.36-5.49,3.36"/>
          <path id="path4849" class="st4" d="M369.66,94.53h-18.15c-.45.26-.89.51-1.34.77v11.15c6.61-4.05,13.14-8.04,19.49-11.93"/>
          <path id="path4851" class="st4" d="M89.49,271.6c-1.04.63-1.61,1.74-1.61,2.87,0,.59.15,1.18.47,1.72.94,1.58,2.98,2.12,4.58,1.2,0,0,10.19-5.88,10.8-6.24-1.55.93-17.33,10.38-17.48,10.48h13.47c9.78-5.65,26.11-15.07,46.29-26.73h-29.25c-16.87,10.33-27.28,16.7-27.28,16.7"/>
          <path id="path4853" class="st4" d="M350.17,107.82v12.08c14.29-8.75,28.29-17.32,41.44-25.37h-18.42c-7.51,4.33-15.21,8.78-23.01,13.29"/>
          <path id="path4855" class="st4" d="M82.51,262.35c-1.04.63-1.61,1.74-1.61,2.87,0,.59.15,1.18.47,1.72.94,1.58,2.98,2.12,4.58,1.2,0,0,8.63-4.98,22.94-13.24h-14.2c-7.71,4.72-12.18,7.45-12.18,7.45"/>
          <path id="path4857" class="st1" d="M444.36,40.92s-.09.05-.26.15h3.85c-1.04-.71-2.43-.82-3.59-.15"/>
          <path id="path4859" class="st1" d="M426.23,35.25c1.04-.63,1.62-1.74,1.62-2.88,0-.58-.15-1.18-.47-1.71-.94-1.59-2.98-2.12-4.58-1.2,0,0-7.65,4.42-20.12,11.61h13.97c6.04-3.67,9.58-5.82,9.58-5.82"/>
          <path id="path4861" class="st1" d="M415.91,29.21c1.04-.63,1.62-1.74,1.62-2.88,0-.58-.15-1.18-.47-1.72-.94-1.58-2.97-2.11-4.56-1.21,0,0,.56-.34.56-.34,1.05-.63,1.64-1.75,1.64-2.89,0-.58-.15-1.17-.47-1.7-.94-1.59-2.99-2.13-4.59-1.21,0,0-15.85,9.15-41.23,23.8h28.05c12.03-7.34,19.45-11.86,19.45-11.86"/>
          <path id="path4863" class="st1" d="M470.19,38.53s-1.55.9-4.41,2.55h9.44c-.05-.46-.2-.93-.45-1.35-.94-1.58-2.98-2.12-4.58-1.2"/>
          <path id="path4865" class="st1" d="M446.15,34.96c1.04-.63,1.61-1.74,1.61-2.88,0-.59-.15-1.18-.47-1.72-.94-1.58-2.98-2.12-4.58-1.2,0,0-7.92,4.58-20.61,11.9h14.06c6.38-3.9,10-6.11,10-6.11"/>
          <path id="path4867" class="st1" d="M485.24,72.51c1.05-.63,1.63-1.75,1.63-2.89,0-.58-.15-1.17-.47-1.71-.02-.04-.06-.07-.08-.11h-6.4c-5.52,3.18-22.73,13.13-46.3,26.73h15.17c19.74-11.92,36.45-22.02,36.45-22.02"/>
          <path id="path4869" class="st1" d="M499.65,83.05c1.04-.63,1.62-1.74,1.62-2.88,0-.59-.15-1.18-.47-1.72-.94-1.59-2.98-2.12-4.58-1.2,0,0-14.33,8.28-29.91,17.27h14.52c11.61-7.08,18.83-11.48,18.83-11.48"/>
          <path id="path4871" class="st1" d="M470.77,67.8h-14.16c-4.65,2.69-8.64,4.99-10.23,5.91.81-.48,5.53-3.32,9.86-5.91h-13.76c-11.47,6.62-27.68,15.98-46.3,26.73h30.96c18.64-11.42,33.94-20.8,43.62-26.73"/>
          <path id="path4873" class="st1" d="M373.19,94.53h18.42c16.22-9.93,31.12-19.05,43.66-26.73h-15.79c-13.77,7.95-29.55,17.06-46.29,26.73"/>
          <path id="path4875" class="st1" d="M413.34,67.8h-15.53c-13.75,7.94-29.62,17.1-46.29,26.73h18.15c16.16-9.89,31.2-19.09,43.68-26.73"/>
          <path id="path4877" class="st1" d="M372.66,67.8h-16.27c-2.05,1.18-4.12,2.38-6.21,3.59v10.08c7.66-4.65,15.24-9.26,22.49-13.66"/>
          <path id="path4879" class="st1" d="M392.42,67.8h-16.62c-8.29,4.79-16.92,9.77-25.63,14.8v11.03c15.01-9.17,29.39-17.96,42.25-25.83"/>
          <path id="path4881" class="st1" d="M350.17,69.31c.83-.5,1.65-1,2.46-1.5h-2.46v1.5Z"/>
          <path id="path4883" class="st1" d="M477.86,86.76c1.05-.63,1.63-1.75,1.63-2.89,0-.58-.15-1.17-.47-1.71-.94-1.59-2.98-2.13-4.58-1.21,0,0-10.23,5.91-23.51,13.57h14.03c7.31-4.4,12.9-7.77,12.9-7.77"/>
          <path id="path4885" class="st1" d="M393.1,147.99c14.71-8.96,29.81-18.17,43.86-26.73h-32.32c-.67.39-1.33.77-1.96,1.13.61-.37,1.24-.75,1.87-1.13h-17.22c-11.97,6.91-24.48,14.13-37.15,21.45v5.28h42.92Z"/>
          <path id="path4887" class="st1" d="M489.55,122.95c.67-.41,1.15-1.01,1.4-1.7h-11.93c-8.96,5.17-25.7,14.84-46.3,26.73h15.57c20.85-12.65,41.25-25.03,41.25-25.03"/>
          <path id="path4889" class="st1" d="M507.83,122.28c.44-.27.79-.62,1.05-1.03h-12.74c-10.13,5.85-28.21,16.29-46.29,26.73h16.1c24.51-15.04,41.88-25.7,41.88-25.7"/>
          <path id="path4891" class="st1" d="M503.62,145.32c1.03-.63,1.61-1.74,1.61-2.87,0-.59-.15-1.18-.48-1.72-.94-1.58-2.98-2.11-4.58-1.19,0,0-7.52,4.34-14.64,8.45h13.75c2.8-1.72,4.34-2.67,4.34-2.67"/>
          <path id="path4893" class="st1" d="M497.84,140.24c1.05-.63,1.63-1.75,1.63-2.89,0-.58-.15-1.17-.47-1.71-.94-1.59-2.98-2.13-4.58-1.2,0,0-9.29,5.36-23.46,13.55h14.06c6.33-3.82,12.83-7.75,12.83-7.75"/>
          <path id="path4895" class="st1" d="M350.17,141.69c11.35-6.95,22.55-13.82,33.35-20.43h-33.35v20.43Z"/>
          <path id="path4897" class="st1" d="M471.05,121.26h-14.51c-11.71,6.76-24.41,14.09-31.76,18.33,7.27-4.39,19.07-11.52,30.35-18.33h-14.88c-14.38,8.3-30.76,17.76-46.3,26.73h33.66c17.63-10.85,32.84-20.21,43.44-26.73"/>
          <path id="path4899" class="st1" d="M493.41,190.18c1.02-.64,1.59-1.74,1.59-2.86,0-.59-.16-1.19-.48-1.73-.95-1.58-2.98-2.1-4.57-1.18,0,0-20.83,12.03-29.52,17.04h14.88c11.04-6.87,18.11-11.27,18.11-11.27"/>
          <path id="path4901" class="st1" d="M499.18,177.8c1.04-.63,1.62-1.74,1.62-2.88,0-.07,0-.14-.01-.21h-9.73c-9.18,5.3-29.31,16.92-36.89,21.3,8.19-4.98,23.14-14.07,35.03-21.3h-14.41c-1.42.82-2.58,1.49-3.36,1.94.67-.4,1.79-1.08,3.21-1.94h-14.59c-13.68,7.9-29.99,17.31-46.3,26.73h46.56c11.67-7.1,38.87-23.64,38.87-23.64"/>
          <path id="path4903" class="st1" d="M412.28,201.44c15.07-9.26,30.11-18.5,43.5-26.73h-31.12c-12.67,7.31-25.75,14.87-38.02,21.95,11.75-7.21,23.9-14.67,35.77-21.95h-35.98c-11.96,6.91-24.21,13.98-36.25,20.93v5.8h62.11Z"/>
          <path id="path4905" class="st1" d="M488.36,201.08c-.94-1.58-2.98-2.11-4.58-1.19,0,0-.96.55-2.69,1.55h7.45c-.05-.12-.11-.24-.18-.36"/>
          <path id="path4907" class="st1" d="M350.17,195.64c11.31-6.96,22.77-14.01,34-20.92h-34v20.92Z"/>
          <path id="path4909" class="st1" d="M38.1,231.79c-1.02.64-1.58,1.73-1.58,2.85,0,.59.16,1.19.48,1.73.95,1.57,2.98,2.1,4.57,1.18,0,0,11.07-6.39,11.8-6.81l-.07.04c-1.05.63-1.64,1.75-1.64,2.89,0,.58.15,1.17.47,1.7.94,1.59,2.98,2.13,4.59,1.21,0,0,5.51-3.18,14.58-8.42h-27.45c-3.63,2.28-5.75,3.61-5.75,3.61"/>
          <path id="path4911" class="st1" d="M477.42,233.5c1.01-.64,1.56-1.73,1.56-2.85,0-.6-.16-1.2-.49-1.74-.17-.29-.39-.53-.63-.74h-4.68c-4.04,2.33-23.92,13.81-46.29,26.73h16.8c18-11.42,33.72-21.4,33.72-21.4"/>
          <path id="path4913" class="st1" d="M94.69,254.9h14.2c12.01-6.93,28.01-16.17,46.29-26.73h-16.81c-18.21,11.15-33.67,20.61-43.68,26.73"/>
          <path id="path4915" class="st1" d="M73.42,254.9h13.79c11.13-6.42,27.37-15.8,46.29-26.73h-16.36c-20.02,12.24-35.84,21.91-43.73,26.73"/>
          <path id="path4917" class="st1" d="M51.93,254.79c-.06.03-.1.07-.16.11h13.44c9.78-5.64,26.19-15.12,46.29-26.73h-15.76c-24.94,15.15-43.81,26.62-43.81,26.62"/>
          <path id="path4919" class="st1" d="M116.77,254.9h29.25c13.89-8.02,29.62-17.1,46.29-26.73h-31.88c-16.83,10.3-31.83,19.49-43.66,26.73"/>
          <path id="path4921" class="st1" d="M43.85,248.24c-1.04.63-1.62,1.74-1.62,2.88,0,.58.15,1.18.47,1.72.94,1.59,2.98,2.12,4.58,1.2,0,0,19.19-11.08,44.8-25.86h-15.33c-19.74,12.04-32.91,20.07-32.91,20.07"/>
          <path id="path4923" class="st1" d="M152.51,254.9h16.81c8.19-4.73,16.05-9.27,22.82-13.18-6.31,3.81-13.87,8.38-21.81,13.18h31.66c15.14-8.74,31.01-17.91,46.29-26.73h-52.16c-15.67,9.6-30.48,18.67-43.62,26.73"/>
          <path id="path4925" class="st1" d="M248.58,228.17c-14.36,8.75-29.46,17.95-43.86,26.73h33.81c13.2-7.62,26.79-15.46,40.21-23.21-12.56,7.73-25.31,15.57-37.72,23.21h37.13c4.13-2.38,8.24-4.76,12.33-7.12-3.83,2.35-7.71,4.73-11.6,7.12h145.53c15.93-10.05,31.01-19.56,42.36-26.73h-15.34c-4.88,2.81-9.37,5.41-12.65,7.3,3.26-2,7.4-4.55,11.88-7.3h-15.86c-11.21,6.47-23.01,13.29-33.84,19.54,10.24-6.37,20.99-13.06,31.4-19.54h-183.78Z"/>
          <path id="path4927" class="st1" d="M460.13,254.66c.97-.65,1.5-1.71,1.5-2.81,0-.61-.16-1.22-.51-1.77-.96-1.54-2.97-2.05-4.54-1.14,0,0-4.32,2.49-10.31,5.96h13.51c.22-.15.35-.24.35-.24"/>
          <path id="path4929" class="st1" d="M131.8,299.34c-1.04.63-1.62,1.74-1.62,2.88,0,.58.15,1.18.47,1.72.94,1.59,2.98,2.12,4.58,1.2,0,0,22.88-13.21,40.71-23.5h-15.09c-17.45,10.64-29.06,17.71-29.06,17.71"/>
          <path id="path4931" class="st1" d="M132.37,308.35h13.57c10.43-6.02,26.78-15.46,46.3-26.73h-15.62c-16.55,10-37.58,22.7-44.25,26.73"/>
          <path id="path4933" class="st1" d="M97.89,288.37c-1.04.63-1.61,1.74-1.61,2.87,0,.59.15,1.18.47,1.72.94,1.58,2.98,2.12,4.58,1.2,0,0,8.9-5.14,21.7-12.53h-14.14c-7.03,4.31-11,6.74-11,6.74"/>
          <path id="path4935" class="st1" d="M109.49,291.66c-1.05.63-1.63,1.74-1.63,2.89,0,.58.15,1.17.47,1.71.94,1.59,2.98,2.13,4.58,1.2,0,0,13.94-8.05,27.43-15.83h-14.24c-9.92,5.99-16.61,10.04-16.61,10.04"/>
          <path id="path4937" class="st1" d="M118.01,295.61c-1.05.63-1.63,1.75-1.63,2.89,0,.58.15,1.17.47,1.71.94,1.59,2.98,2.13,4.58,1.21,0,0,13.76-7.95,34.27-19.79h-14.47c-11.6,6.99-23.23,13.99-23.23,13.99"/>
          <path id="path4939" class="st1" d="M86.24,281.63c-1.05.63-1.64,1.75-1.64,2.89,0,.58.15,1.17.47,1.7.94,1.59,2.99,2.13,4.59,1.21,0,0,3.61-2.09,10.06-5.81h-13.48Z"/>
          <path id="path4941" class="st1" d="M191.77,308.35h29.46c14.04-8.1,30.16-17.42,46.3-26.73h-32.2c-16.68,10.24-31.92,19.59-43.55,26.73"/>
          <path id="path4943" class="st1" d="M154.14,308.35h14.28c14.11-8.15,32.11-18.54,46.3-26.73h-17.14c-18.16,11.17-33.49,20.61-43.44,26.73"/>
          <path id="path4945" class="st1" d="M225.42,308.35h63.3c9.28-5.36,18.74-10.82,28.01-16.17-8.48,5.28-17.3,10.77-25.99,16.17h35.27c4.05-2.34,8.11-4.68,12.15-7.02-3.68,2.32-7.4,4.67-11.12,7.02h40.1c.56-.32,1.12-.65,1.68-.97-.48.32-.97.65-1.46.97h19.4l46.3-26.73h-164.15c-15.02,9.23-30.05,18.47-43.5,26.73"/>
          <path id="path4947" class="st1" d="M171.03,308.35h14.53c12.96-7.48,28.97-16.72,46.3-26.73h-16.78c-13.36,8.11-30.67,18.61-44.05,26.73"/>
          <path id="path4949" class="st1" d="M176.35,338.51c-1.03.63-1.61,1.74-1.61,2.87,0,.59.15,1.18.48,1.72.94,1.58,2.98,2.11,4.58,1.19,0,0,8.13-4.69,15.95-9.21h-13.83c-3.57,2.2-5.57,3.43-5.57,3.43"/>
          <path id="path4951" class="st1" d="M202.9,350.13c-1.04.63-1.62,1.74-1.62,2.88,0,.58.15,1.18.47,1.71.94,1.59,2.98,2.12,4.58,1.2,0,0,14.76-8.52,36.09-20.84h-14.79c-11.85,7.21-24.73,15.04-24.73,15.04"/>
          <path id="path4953" class="st1" d="M196.75,344.63c-1.04.63-1.62,1.74-1.62,2.88,0,.58.15,1.18.47,1.71.94,1.59,2.98,2.12,4.58,1.2,0,0,13.85-8,26.58-15.35h-14.3c-8.94,5.44-15.71,9.55-15.71,9.55"/>
          <path id="path4955" class="st1" d="M182.21,343.64c-1.05.63-1.63,1.74-1.63,2.88,0,.58.15,1.17.47,1.71.94,1.59,2.98,2.13,4.58,1.2,0,0,11.18-6.46,24.86-14.35h-14.14c-7.02,4.24-14.15,8.55-14.15,8.55"/>
          <path id="path4957" class="st1" d="M224.28,349.72c-1.02.64-1.59,1.74-1.59,2.86,0,.59.16,1.19.48,1.73.94,1.58,2.98,2.1,4.57,1.19,0,0,19.2-11.08,35.35-20.41h-15.3c-14.09,8.77-23.52,14.63-23.52,14.63"/>
          <path id="path4959" class="st1" d="M229.15,356.51c-1.03.63-1.6,1.74-1.6,2.87,0,.59.15,1.18.48,1.72.16.27.37.5.59.71h4.82c4.03-2.33,22.37-12.92,46.3-26.73h-15.75c-15.77,9.7-34.83,21.43-34.83,21.43"/>
          <path id="path4961" class="st1" d="M278.15,351.97c-1.01.64-1.56,1.73-1.56,2.85,0,.59.16,1.2.49,1.74.95,1.57,2.98,2.09,4.56,1.17,0,0,16.44-9.49,39.22-22.64h-16.1c-14.84,9.41-26.61,16.88-26.61,16.88"/>
          <path id="path4963" class="st1" d="M248.73,357.76c-1.01.64-1.57,1.73-1.57,2.85,0,.4.08.81.23,1.19h7.8c6.91-3.99,25.08-14.48,46.29-26.73h-16.8c-20.8,13.12-35.95,22.68-35.95,22.68"/>
          <path id="path4965" class="st1" d="M327.21,336.91c0,.61.16,1.22.51,1.77.96,1.55,2.97,2.05,4.54,1.14l8.21-4.74h-12.72c-.35.55-.54,1.18-.54,1.83"/>
          <path id="path4967" class="st6" d="M64.68,168.24c-25.6,16.23-46.8,29.67-46.8,29.67-1.01.64-1.57,1.73-1.57,2.85,0,.59.16,1.2.49,1.74.95,1.57,2.98,2.09,4.56,1.17,0,0,21.42-12.37,49.09-28.34-2.05-2.25-3.98-4.62-5.77-7.09"/>
          <path id="path4969" class="st6" d="M207.63,172.86c-31.79,19.43-64.63,39.51-90.48,55.31h16.36c22.8-13.16,49.48-28.57,75.81-43.77l-1.68-11.54Z"/>
          <path id="path4971" class="st6" d="M176.41,186.41c-10.24,7.36-22.28,12.36-35.34,14.22-15.52,9.43-31.37,19.06-45.33,27.54h15.76c27.63-15.95,62.23-35.93,96.1-55.48l-1.57-10.78c-7.41,10.65-17.65,19.18-29.63,24.51"/>
          <path id="path4973" class="st6" d="M27.03,180.3c-1,.64-1.54,1.73-1.54,2.83,0,.6.16,1.21.49,1.75.95,1.56,2.97,2.08,4.56,1.16,0,0,14.82-8.56,33.19-19.16-1.64-2.36-3.15-4.81-4.53-7.34-18.69,12.06-32.16,20.76-32.16,20.76"/>
          <path id="path4975" class="st6" d="M51.75,102.26c-26.22,17.02-48.26,31.33-48.26,31.33-.99.64-1.53,1.72-1.53,2.83,0,.6.16,1.21.5,1.76.95,1.56,2.97,2.07,4.56,1.16,0,0,7.43-4.29,8.09-4.67-.06.04-2.33,1.45-2.33,1.45-1.03.64-1.59,1.74-1.59,2.86,0,.59.15,1.19.48,1.73.94,1.58,2.98,2.11,4.57,1.19,0,0,17.72-10.23,33.27-19.21,0-.47-.02-.94-.02-1.42,0-6.55.79-12.9,2.27-18.99"/>
          <path id="path4977" class="st6" d="M246.68,108.65c11.37-7.14,19.13-12.02,19.13-12.02,1.02-.64,1.58-1.73,1.58-2.85,0-.59-.16-1.19-.48-1.74-.95-1.57-2.98-2.1-4.57-1.18,0,0-11.01,6.36-23.49,13.56l-4.91,5.24,12.75-1.02Z"/>
          <path id="path4979" class="st6" d="M206.82,31.84c1.01-.64,1.57-1.73,1.57-2.85,0-.59-.16-1.19-.49-1.74-.95-1.57-2.98-2.09-4.57-1.18,0,0-8.48,4.9-9.36,5.4.06-.03,2.24-1.39,2.24-1.39,1.03-.64,1.59-1.74,1.59-2.86,0-.59-.15-1.19-.48-1.73-.94-1.58-2.98-2.11-4.57-1.19,0,0-15.75,9.09-36.73,21.21,5.85,2.03,11.38,4.72,16.52,7.99,17.87-11.3,34.26-21.66,34.26-21.66"/>
          <path id="path4981" class="st6" d="M189.31,20.99c.99-.64,1.53-1.72,1.53-2.83,0-.6-.16-1.21-.5-1.76-.95-1.56-2.97-2.07-4.56-1.16,0,0-23.92,13.81-45.86,26.47,4.49.57,8.87,1.52,13.1,2.81,20.61-13.38,36.27-23.55,36.27-23.55"/>
          <path id="path4983" class="st6" d="M181.67,58.71c12.38-8.02,20.49-13.27,20.49-13.27.99-.64,1.54-1.72,1.54-2.83,0-.6-.16-1.21-.5-1.75-.95-1.56-2.97-2.07-4.56-1.16,0,0-11.74,6.78-25.06,14.47.95.63,1.89,1.27,2.82,1.93,1.8.8,3.55,1.67,5.27,2.61"/>
          <path id="path4985" class="st6" d="M226.9,99.14c9.06-5.72,15.17-9.57,15.17-9.57,1.01-.64,1.57-1.73,1.57-2.85,0-.59-.16-1.19-.49-1.74-.95-1.57-2.98-2.09-4.57-1.18,0,0-3.08,1.78-8.4,4.85l-3.29,10.49Z"/>
          <path id="path4987" class="st6" d="M310.83,130.53c13.01-7.96,26.34-16.12,39.34-24.08v-11.15c-16.14,9.32-33,19.05-49.38,28.51,16.42-10.04,33.26-20.33,49.38-30.18v-11.03c-12.6,7.27-25.35,14.64-37.47,21.63,11.87-7.21,24.76-15.05,37.47-22.76v-10.08c-20.4,11.78-42.8,24.71-64.01,36.96,21.13-12.89,43.71-26.66,64.01-39.04v-17.7c-27.31,15.77-61.69,35.61-98.05,56.61l22.87-1.82-38.42,14.87,38.42,14.87-41.06-3.27,28.16,30.06-35.58-20.76,11.9,37.96c2.91-1.68,5.83-3.36,8.73-5.04-2.88,1.76-5.77,3.53-8.65,5.3l.34,1.09-.62-.92c-27.02,16.54-54.2,33.18-77.8,47.63h31.88c21.15-12.21,43.83-25.3,66.27-38.26-21.09,12.92-42.47,26.02-62.45,38.26h52.16c1.8-1.04,3.59-2.07,5.37-3.1-1.68,1.03-3.38,2.06-5.09,3.1h101.6v-32.53c-.07.04-.13.08-.2.11.06-.04.13-.08.2-.12v-52.93c-9.57,5.52-19.23,11.1-28.83,16.65,9.61-5.89,19.27-11.81,28.83-17.66v-20.6c-11.37,6.56-22.91,13.23-34.27,19.78,11.41-6.99,22.93-14.04,34.27-20.98v-12.08c-12.97,7.49-26.23,15.14-39.34,22.71"/>
          <path id="path4989" class="st6" d="M241.44,101.65c6.52-4.06,11.39-7.1,11.39-7.1,1.02-.64,1.59-1.74,1.59-2.86,0-.59-.15-1.19-.48-1.73-.2-.34-.46-.62-.75-.86l-11.75,12.54Z"/>
          <path id="path4991" class="st6" d="M215.8,147.32l-3.29,22.54c.25-.14.49-.29.74-.43-.25.15-.49.3-.74.45l-2.02,13.84c3.02-1.75,6.04-3.49,9.05-5.22-3.02,1.85-6.05,3.7-9.1,5.57l-.58,4.01-.49-3.35c-24.56,15.03-49.66,30.39-70.99,43.44h16.81c24.88-14.36,53.96-31.16,82.89-47.85l-22.27-33Z"/>
          <path id="path4993" class="st6" d="M202.03,75.38c1.85-1.19,3.6-2.33,5.26-3.4l2.56-17.55,2.12,14.53c7.4-4.78,11.9-7.68,11.9-7.68,1-.64,1.54-1.73,1.54-2.83,0-.6-.16-1.2-.49-1.75-.68-1.11-1.9-1.67-3.12-1.58.35-.54.55-1.17.55-1.81,0-.59-.15-1.18-.47-1.72-.94-1.58-2.98-2.12-4.58-1.2,0,0-3.78,2.18-3.93,2.27.88-.55,9.65-5.96,9.65-5.96,1.03-.64,1.6-1.74,1.6-2.87,0-.59-.15-1.18-.48-1.72-.94-1.58-2.98-2.11-4.58-1.19,0,0-14.01,8.09-34.38,19.85,6.35,3.97,12.04,8.91,16.84,14.62"/>
          <path id="path4995" class="st6" d="M236.7,79.34c1-.64,1.55-1.73,1.55-2.84,0-.6-.16-1.2-.49-1.75-.6-.99-1.63-1.55-2.71-1.61l-2.85,9.08c2.89-1.85,4.5-2.89,4.5-2.89"/>
          <path id="path4997" class="st6" d="M129.67,41.07c3.19,0,6.34.19,9.43.55,14.62-9.39,31.67-20.35,31.67-20.35,1-.64,1.55-1.73,1.55-2.84,0-.6-.16-1.2-.49-1.75-.95-1.56-2.98-2.08-4.56-1.16,0,0-21.41,12.36-32.66,18.85,7.39-4.78,24.83-16.06,24.83-16.06.99-.64,1.54-1.73,1.54-2.83,0-.6-.16-1.21-.5-1.75-.95-1.56-2.98-2.07-4.56-1.16,0,0-26.72,15.43-50.81,29.34,16.54-11.22,37.57-25.47,37.57-25.47.96-.65,1.48-1.71,1.48-2.79,0-.61-.17-1.23-.51-1.78-.96-1.54-2.97-2.04-4.54-1.13,0,0-27.39,15.81-54.69,31.58,17.13-12.29,35.91-25.76,35.91-25.76.91-.66,1.4-1.69,1.4-2.74,0-.63-.17-1.26-.54-1.82-.97-1.51-2.96-1.99-4.51-1.09,0,0-15.62,9.02-30.83,17.8,6.43-5.13,15.23-12.15,15.23-12.15.83-.66,1.27-1.64,1.27-2.64,0-.66-.19-1.32-.59-1.89-.99-1.46-2.94-1.9-4.47-1.02l-35.98,20.77c-1.61.93-2.16,2.99-1.23,4.6.69,1.19,2,1.78,3.28,1.64-7.5,5.98-16.85,13.44-16.85,13.44-.83.66-1.27,1.64-1.27,2.63,0,.66.19,1.32.59,1.9.99,1.46,2.94,1.9,4.47,1.02,0,0,7.87-4.55,10.61-6.13-17.12,12.28-35.89,25.74-35.89,25.74-.91.66-1.4,1.69-1.4,2.74,0,.63.17,1.26.54,1.82.97,1.51,2.96,1.99,4.51,1.09,0,0,19.44-11.22,33.09-19.1-16.57,11.23-37.6,25.5-37.6,25.5-.96.65-1.48,1.71-1.48,2.79,0,.61.17,1.23.51,1.79.96,1.54,2.97,2.04,4.54,1.13,0,0,12.82-7.41,16.41-9.47-7.38,4.78-24.81,16.05-24.81,16.05-.99.64-1.54,1.72-1.54,2.83,0,.6.16,1.21.49,1.75.95,1.56,2.97,2.07,4.56,1.16,0,0,17.99-10.39,25.03-14.45-15.35,9.86-40.54,26.05-40.54,26.05-1,.64-1.55,1.73-1.55,2.84,0,.6.16,1.2.49,1.75.95,1.56,2.98,2.08,4.56,1.16,0,0,19.04-10.99,41.48-23.95,9.29-34.01,40.4-59.02,77.36-59.02"/>
          <path id="path4999" class="st6" d="M206.62,76.61c-.81.47-1.63.94-2.46,1.42.65.84,1.27,1.7,1.88,2.58l.58-4Z"/>
          <path id="path5001" class="st6" d="M218.71,90.89l9.88-14.64c-3.34,1.93-8.31,4.8-14.35,8.28l1.23,8.43c1.11-.72,2.19-1.41,3.24-2.08"/>
          <path id="path5003" class="st6" d="M233.25,69.34l5.59-8.29-1.86,5.92c1.42-.9,2.2-1.39,2.2-1.39,1.01-.64,1.57-1.73,1.57-2.85,0-.59-.16-1.2-.49-1.74-.95-1.57-2.98-2.09-4.56-1.17,0,0-9.1,5.25-23.11,13.34l1.24,8.49c8.15-5.17,14.93-9.47,19.43-12.32"/>
          <path id="path5005" class="st6" d="M50.74,135.46c-23.64,15.3-41.96,27.16-41.96,27.16-.99.64-1.54,1.72-1.54,2.83,0,.6.16,1.21.5,1.75.95,1.56,2.98,2.07,4.56,1.16,0,0,14.17-8.18,16.58-9.57-.89.55-9.65,5.96-9.65,5.96-1.03.64-1.6,1.74-1.6,2.87,0,.59.15,1.18.48,1.72.51.84,1.33,1.37,2.22,1.55-.15.09-3.85,2.35-3.85,2.35-1.04.63-1.61,1.74-1.61,2.88,0,.59.15,1.18.47,1.72.94,1.58,2.98,2.12,4.58,1.2,0,0,16.06-9.27,38.02-21.95-3.37-6.73-5.82-14-7.19-21.65"/>
          <path id="path5007" class="st6" d="M4.3,151.91c-1.01.64-1.57,1.73-1.57,2.85,0,.59.16,1.19.49,1.74.95,1.57,2.98,2.09,4.57,1.18,0,0,18.62-10.75,42.57-24.58-.47-3.2-.76-6.46-.84-9.77-21.47,13.57-45.21,28.58-45.21,28.58"/>
          <path id="path5009" class="st6" d="M30.35,215.23c-1.01.64-1.57,1.73-1.57,2.85,0,.59.16,1.19.49,1.74.95,1.57,2.98,2.09,4.57,1.18,0,0,29.95-17.29,44.2-25.52-12,7.48-39.45,24.56-39.45,24.56-1.02.64-1.59,1.74-1.59,2.86,0,.59.15,1.19.48,1.73.94,1.58,2.98,2.1,4.57,1.19,0,0,28.33-16.36,54.55-31.5-6.04-2.74-11.68-6.21-16.81-10.29-24.08,15.2-49.43,31.2-49.43,31.2"/>
          <path id="path5011" class="st6" d="M43.85,228.17h27.45c11.46-6.62,28.62-16.52,47.56-27.46-7.59-1.02-14.85-3.11-21.61-6.1-21.09,13.25-43.21,27.16-53.4,33.56"/>
          <path id="path5013" class="st6" d="M72.05,177.02c-25.67,16.48-45.52,29.22-45.52,29.22-1,.64-1.55,1.73-1.55,2.84,0,.6.16,1.2.49,1.75.95,1.56,2.98,2.08,4.56,1.17,0,0,25.22-14.56,49.19-28.4-2.52-2.04-4.92-4.24-7.18-6.57"/>
          <path id="path5015" class="st6" d="M121.3,201.01c-16.39,10-31.82,19.41-44.53,27.16h15.33c14.49-8.37,31.03-17.92,47.32-27.32-3.19.39-6.44.59-9.74.59-2.83,0-5.62-.15-8.37-.43"/>
          <path id="path5017" class="st2" d="M76.25,118.94c-8.78,5.68-17.46,11.3-25.52,16.52,1.37,7.65,3.82,14.92,7.19,21.65,6.89-3.98,14.37-8.29,22.11-12.76-2.48-7.24-3.82-15-3.82-23.08,0-.78.02-1.55.04-2.32"/>
          <path id="path5019" class="st2" d="M173.59,54.17c-.26.15-.52.3-.78.45,1.22.46,2.42.96,3.6,1.48-.93-.66-1.87-1.31-2.82-1.93"/>
          <path id="path5021" class="st2" d="M91.07,164.81c-6.54,4.2-12.94,8.31-19.02,12.21,2.26,2.33,4.65,4.52,7.18,6.57,5.06-2.92,10.07-5.81,14.77-8.53-4.54,2.87-9.36,5.9-14.22,8.97,5.13,4.08,10.77,7.55,16.81,10.29,4.65-2.68,9.23-5.33,13.57-7.84-4.18,2.63-8.53,5.36-12.92,8.12,6.76,2.99,14.02,5.08,21.61,6.1,5.25-3.03,10.64-6.14,16.08-9.28-17.77-3.16-33.26-12.9-43.87-26.62"/>
          <path id="path5023" class="st2" d="M172.56,53.5c-5.14-3.26-10.68-5.95-16.52-7.99-2.52,1.45-5.11,2.95-7.76,4.48,8.16.09,15.98,1.55,23.26,4.15.34-.22.68-.43,1.02-.65"/>
          <path id="path5025" class="st2" d="M64.68,168.24c1.79,2.47,3.72,4.84,5.77,7.09,6.36-3.67,13.04-7.53,19.88-11.48-2-2.67-3.81-5.49-5.42-8.44-6.84,4.34-13.68,8.67-20.23,12.82"/>
          <path id="path5027" class="st2" d="M144.55,50.05c2.9-1.88,5.74-3.73,8.49-5.51-4.23-1.29-8.61-2.24-13.1-2.81-3.33,1.93-6.62,3.82-9.77,5.64,2.73-1.76,5.78-3.71,8.93-5.74-3.09-.36-6.24-.55-9.43-.55-36.96,0-68.07,25.01-77.36,59.02,8.18-4.72,16.81-9.71,25.14-14.52-8.61,5.59-17.36,11.27-25.7,16.68-1.48,6.09-2.27,12.45-2.27,18.99,0,.48,0,.95.02,1.42,4.28-2.47,8.4-4.85,11.94-6.89-3.77,2.38-7.81,4.94-11.93,7.54.08,3.31.37,6.57.84,9.77,8.2-4.73,17.02-9.82,25.93-14.97,1.6-36.94,31.31-66.58,68.27-68.07"/>
          <path id="path5029" class="st2" d="M80.54,145.77c-7.52,4.85-14.75,9.52-21.34,13.77,1.38,2.53,2.9,4.98,4.53,7.34,6.67-3.85,13.81-7.97,20.87-12.05-1.56-2.91-2.92-5.93-4.07-9.06"/>
          <path id="path5031" class="st2" d="M136.56,191.7c-5.14,3.14-10.25,6.25-15.26,9.31,2.75.29,5.54.43,8.37.43,3.3,0,6.55-.2,9.74-.59,5.05-2.91,10.07-5.81,14.99-8.66-2.28.22-4.58.34-6.92.34-3.71,0-7.36-.29-10.92-.83"/>
          <path id="path5033" class="st2" d="M155.06,192.13c-4.59,2.79-9.28,5.64-13.99,8.5,13.06-1.86,25.1-6.86,35.34-14.22-6.64,2.95-13.82,4.92-21.35,5.71"/>
          <path id="path5035" class="st6" d="M206.03,161.9l-2.13-14.59-23.05,34.15,12.33-39.31-35.58,20.76,28.16-30.06-41.06,3.27,8.88-3.43c7.45-4.79,14.95-9.6,22.22-14.27l-12.13-4.7c-1.64.95-3.27,1.89-4.88,2.82,1.53-.97,3.07-1.94,4.61-2.92l-12.51-4.84c-1.96,1.13-3.92,2.26-5.88,3.39,1.83-1.18,3.66-2.36,5.49-3.54l-5.8-2.24,8.26.66c6.38-4.12,12.76-8.23,18.92-12.21l-14.28-15.24,19.9,11.61c3.67-2.37,7.24-4.67,10.65-6.88l-6.71-21.41c-16.89,9.75-37.56,21.68-58.09,33.54,21.16-13.7,43.01-27.85,58.32-37.76-1.71-.94-3.47-1.81-5.27-2.61-1.18-.53-2.39-1.02-3.6-1.48-7.94,4.58-16.37,9.45-23.17,13.38,6.79-4.29,14.45-9.14,21.91-13.85-7.28-2.61-15.1-4.07-23.26-4.15-10.45,6.03-21.78,12.58-32.89,18.99,9.81-6.37,19.82-12.86,29.17-18.94-36.96,1.5-66.67,31.14-68.27,68.07,3.76-2.17,7.55-4.36,11.3-6.53-3.77,2.44-7.56,4.89-11.33,7.34-.02.77-.04,1.54-.04,2.32,0,8.08,1.35,15.84,3.82,23.08,8.44-4.87,17.19-9.93,25.85-14.93-8.48,5.47-17.09,11.03-25.35,16.36,1.15,3.13,2.51,6.16,4.07,9.06,4.64-2.68,9.25-5.34,13.67-7.89-4.4,2.79-8.88,5.63-13.36,8.47,1.61,2.95,3.42,5.77,5.42,8.44,7.32-4.23,14.8-8.55,22.23-12.84-7.17,4.6-14.42,9.25-21.5,13.8,10.6,13.72,26.1,23.46,43.87,26.62,13-7.5,26.3-15.18,38.77-22.38-12.14,7.4-24.75,15.1-37.14,22.65,3.56.55,7.21.83,10.92.83,2.33,0,4.64-.12,6.92-.34,3.75-2.17,7.45-4.3,11.07-6.39-3.39,2.06-6.87,4.18-10.41,6.32,7.53-.79,14.7-2.76,21.35-5.71,11.98-5.33,22.22-13.86,29.63-24.51"/>
          <path id="path5037" class="st6" d="M192.21,97.25c-.73.42-1.45.84-2.19,1.26l3.16,1.84-.97-3.11Z"/>
          <path id="path5039" class="st6" d="M188.57,97.67c1.05-.67,2.1-1.33,3.14-1.99l-2.78-8.86c-3.1,1.79-6.28,3.63-9.53,5.5l9.16,5.35Z"/>
          <path id="path5041" class="st6" d="M177.49,119.08c-7.49,4.32-15.21,8.78-22.91,13.22l28.54-11.05-5.63-2.18Z"/>
          <path id="path5043" class="st6" d="M180.49,104.02c-2.64,1.52-5.29,3.05-7.94,4.58l13.22,1.05-5.28-5.64Z"/>
          <path id="path5045" class="st6" d="M203.9,95.2l.75-5.13c-.99.57-2,1.16-3.03,1.75l2.28,3.38Z"/>
          <path id="path5047" class="st6" d="M179.77,103.25l-6.77-7.23c-6.27,3.62-12.72,7.35-19.21,11.09l17.67,1.41c2.78-1.76,5.55-3.52,8.31-5.27"/>
          <path id="path5049" class="st6" d="M205.07,87.21l.96-6.6c-.61-.87-1.23-1.73-1.88-2.58-2.72,1.57-5.57,3.22-8.52,4.92l4.84,7.17c1.56-.99,3.09-1.96,4.59-2.91"/>
          <path id="path5051" class="st6" d="M194.02,80.55c2.81-1.82,5.49-3.54,8.01-5.17-4.81-5.71-10.49-10.65-16.84-14.62-1.07.62-2.15,1.24-3.25,1.88l12.09,17.91Z"/>
          <path id="path5053" class="st2" d="M226.52,142.15l35.58,20.76-28.16-30.06,41.06,3.27-38.42-14.87-11.75,2.71c-2.36,1.36-4.73,2.73-7.09,4.1l.13,1.21-1.59-.37s-.06.04-.09.05l-4.43,41.33c.25-.14.5-.29.75-.43l3.29-22.54,22.27,33c.12-.07.23-.13.35-.2l-11.9-37.96Z"/>
          <path id="path5055" class="st2" d="M212.51,169.88c-.25.15-.5.31-.75.46l-1.45,13.49c.06-.03.12-.07.18-.1l2.02-13.84Z"/>
          <path id="path5057" class="st2" d="M210.44,184.07c-.06.03-.11.07-.17.1l-.42,3.91.58-4.01Z"/>
          <path id="path5059" class="st2" d="M238.5,180.37c-.09.06-.19.11-.28.17l.62.92-.34-1.09Z"/>
          <path id="path5061" class="st2" d="M217.48,125.66l.13,1.25c1.08-.68,2.15-1.35,3.21-2.02l-3.35.77Z"/>
          <path id="path5063" class="st2" d="M233.25,69.34c1.52-.96,2.78-1.76,3.74-2.37l1.86-5.92-5.59,8.29Z"/>
          <path id="path5065" class="st2" d="M275,106.39l-22.87,1.82c-9,5.2-18.12,10.47-27.29,15.76l11.75-2.71,38.42-14.87Z"/>
          <path id="path5067" class="st2" d="M209.85,54.44l1.59,14.87c.18-.11.35-.23.53-.34l-2.12-14.53Z"/>
          <path id="path5069" class="st2" d="M232.2,82.23l2.85-9.08c-.63-.03-1.27.11-1.85.44,0,0-1.67.96-4.61,2.66l-9.88,14.64c5.73-3.68,10.37-6.65,13.49-8.66"/>
          <path id="path5071" class="st2" d="M213.82,81.66l-1.24-8.49c-.23.13-.45.26-.68.39l.94,8.73c.33-.21.66-.42.99-.63"/>
          <path id="path5073" class="st2" d="M215.47,92.97l-1.23-8.43c-.36.21-.73.42-1.1.63l.93,8.69c.47-.3.94-.6,1.4-.9"/>
          <path id="path5075" class="st2" d="M226.9,99.14l3.29-10.49c-4.06,2.34-9.42,5.44-15.7,9.06l.93,8.67c4.14-2.61,8.03-5.06,11.48-7.25"/>
          <path id="path5077" class="st2" d="M217.87,113.24l-.35,3.31c7-4.36,16.52-10.29,23.92-14.9l11.75-12.54c-1.05-.87-2.57-1.05-3.82-.33,0,0-14.99,8.66-33.75,19.49l.57,5.36,1.68-.39Z"/>
          <path id="path5079" class="st2" d="M217.01,121.26l.47,4.41,3.35-.77c9.38-5.9,18.39-11.56,25.85-16.25l-12.75,1.02,4.91-5.24c-7.24,4.18-14.98,8.65-21.35,12.33l-.48,4.51Z"/>
          <path id="path5081" class="st2" d="M211.75,170.34c-1.37.84-2.74,1.68-4.12,2.52l1.68,11.54c.33-.19.66-.38.99-.57l1.45-13.49Z"/>
          <path id="path5083" class="st2" d="M216.18,128.96c-7.49,4.33-15,8.66-22.48,12.98,6.82-4.28,14.06-8.84,21.23-13.34l-24.68-5.69c-4.01,2.32-7.98,4.61-11.81,6.82,3.56-2.25,7.29-4.6,11.07-6.99l-6.4-1.48-28.54,11.05c-1.32.76-2.64,1.52-3.96,2.29.98-.63,1.97-1.26,2.96-1.9l-8.88,3.43,41.06-3.27-28.16,30.06,35.58-20.76-12.33,39.31,23.05-34.15,2.13,14.59,1.57,10.78c1.39-.8,2.77-1.6,4.15-2.4l4.43-41.33Z"/>
          <path id="path5085" class="st2" d="M210.27,184.17c-.3.19-.61.37-.91.55l.49,3.35.42-3.91Z"/>
          <path id="path5087" class="st2" d="M216.19,113.63l.38,3.51c.31-.19.62-.39.95-.59l.35-3.31-1.68.39Z"/>
          <path id="path5089" class="st2" d="M217.49,116.74c-.31.18-.61.35-.91.53l.43,3.99.48-4.51Z"/>
          <path id="path5091" class="st2" d="M205.07,87.21c2.69-1.71,5.29-3.35,7.77-4.92l-.94-8.73c-1.69.98-3.46,2-5.28,3.05l-.58,4-.96,6.6Z"/>
          <path id="path5093" class="st2" d="M150.5,108.63c.82-.53,1.64-1.06,2.46-1.59l-8.26-.66,5.8,2.24Z"/>
          <path id="path5095" class="st2" d="M171.45,108.52l-17.67-1.41c-.96.56-1.93,1.11-2.89,1.67l12.51,4.84c2.67-1.69,5.36-3.4,8.05-5.1"/>
          <path id="path5097" class="st2" d="M214.07,93.86l-.93-8.69c-2.66,1.53-5.5,3.18-8.49,4.9l-.75,5.13-2.28-3.38c-3.03,1.75-6.18,3.57-9.41,5.43l.97,3.11-3.16-1.84c-3.13,1.81-6.32,3.65-9.54,5.51l5.28,5.64-13.22-1.05c-2.97,1.72-5.94,3.43-8.87,5.12l12.13,4.7c14.27-9.16,27.68-17.77,38.27-24.56"/>
          <path id="path5099" class="st2" d="M191.72,95.67c2.99-1.89,5.92-3.75,8.76-5.55l-4.84-7.17c-2.18,1.26-4.41,2.55-6.7,3.87l2.78,8.86Z"/>
          <path id="path5101" class="st2" d="M188.57,97.67l-9.16-5.35c-2.11,1.22-4.25,2.46-6.41,3.7l6.77,7.23c2.96-1.88,5.91-3.74,8.81-5.58"/>
          <path id="path5103" class="st2" d="M171.88,94.84c1.9-1.22,3.77-2.43,5.62-3.63l-19.9-11.61,14.28,15.24Z"/>
          <path id="path5105" class="st2" d="M188.16,84.33c2.01-1.3,3.96-2.56,5.86-3.78l-12.09-17.91c-.16.09-.32.19-.49.28l6.71,21.41Z"/>
          <path id="path5107" class="st2" d="M217.74,128.06c-.49.28-.98.56-1.46.84l1.59.37-.13-1.21Z"/>
          <path id="path5109" class="st2" d="M209.85,54.44l-2.56,17.55c1.46-.95,2.85-1.84,4.15-2.68l-1.59-14.87Z"/>
          <path id="path5111" class="st2" d="M189.52,122.73c8.74-5.52,17.8-11.24,25.9-16.34l-.93-8.67c-10.38,5.99-23.28,13.44-37,21.36l5.63,2.18,6.4,1.48Z"/>
          <path id="path5113" class="st2" d="M214.93,128.6c.9-.56,1.79-1.13,2.68-1.69l-.13-1.25-.47-4.41-.43-3.99c-1.09.63-2.15,1.24-3.14,1.81.95-.59,2.01-1.25,3.13-1.95l-.38-3.51-.57-5.36c-8.06,4.65-16.8,9.7-25.36,14.64l24.68,5.69Z"/>
        </g>
      </g>
    </g>
  </g>
</svg>